<svg width="1024" height="1024" viewBox="0 0 1024 1024" xmlns="http://www.w3.org/2000/svg"><rect x="232.65" y="187.35" width="45.30" height="45.30" fill="#FFFFFF"/><rect x="274.93" y="187.35" width="45.30" height="45.30" fill="#FFFFFF"/><rect x="317.21" y="187.35" width="45.30" height="45.30" fill="#FFFFFF"/><rect x="359.49" y="187.35" width="45.30" height="45.30" fill="#FFFFFF"/><rect x="401.77" y="187.35" width="45.30" height="45.30" fill="#FFFFFF"/><rect x="444.05" y="187.35" width="45.30" height="45.30" fill="#FFFFFF"/><rect x="534.65" y="187.35" width="45.30" height="45.30" fill="#FFFFFF"/><rect x="576.93" y="187.35" width="45.30" height="45.30" fill="#FFFFFF"/><rect x="619.21" y="187.35" width="45.30" height="45.30" fill="#FFFFFF"/><rect x="661.49" y="187.35" width="45.30" height="45.30" fill="#FFFFFF"/><rect x="703.77" y="187.35" width="45.30" height="45.30" fill="#FFFFFF"/><rect x="746.05" y="187.35" width="45.30" height="45.30" fill="#FFFFFF"/><rect x="791.35" y="232.65" width="45.30" height="45.30" fill="#FFFFFF"/><rect x="791.35" y="274.93" width="45.30" height="45.30" fill="#FFFFFF"/><rect x="791.35" y="317.21" width="45.30" height="45.30" fill="#FFFFFF"/><rect x="791.35" y="359.49" width="45.30" height="45.30" fill="#FFFFFF"/><rect x="791.35" y="401.77" width="45.30" height="45.30" fill="#FFFFFF"/><rect x="791.35" y="444.05" width="45.30" height="45.30" fill="#FFFFFF"/><rect x="791.35" y="534.65" width="45.30" height="45.30" fill="#FFFFFF"/><rect x="791.35" y="576.93" width="45.30" height="45.30" fill="#FFFFFF"/><rect x="791.35" y="619.21" width="45.30" height="45.30" fill="#FFFFFF"/><rect x="791.35" y="661.49" width="45.30" height="45.30" fill="#FFFFFF"/><rect x="791.35" y="703.77" width="45.30" height="45.30" fill="#FFFFFF"/><rect x="791.35" y="746.05" width="45.30" height="45.30" fill="#FFFFFF"/><rect x="534.65" y="791.35" width="45.30" height="45.30" fill="#FFFFFF"/><rect x="576.93" y="791.35" width="45.30" height="45.30" fill="#FFFFFF"/><rect x="619.21" y="791.35" width="45.30" height="45.30" fill="#FFFFFF"/><rect x="661.49" y="791.35" width="45.30" height="45.30" fill="#FFFFFF"/><rect x="703.77" y="791.35" width="45.30" height="45.30" fill="#FFFFFF"/><rect x="746.05" y="791.35" width="45.30" height="45.30" fill="#FFFFFF"/><rect x="232.65" y="791.35" width="45.30" height="45.30" fill="#FFFFFF"/><rect x="274.93" y="791.35" width="45.30" height="45.30" fill="#FFFFFF"/><rect x="317.21" y="791.35" width="45.30" height="45.30" fill="#FFFFFF"/><rect x="359.49" y="791.35" width="45.30" height="45.30" fill="#FFFFFF"/><rect x="401.77" y="791.35" width="45.30" height="45.30" fill="#FFFFFF"/><rect x="444.05" y="791.35" width="45.30" height="45.30" fill="#FFFFFF"/><rect x="187.35" y="534.65" width="45.30" height="45.30" fill="#FFFFFF"/><rect x="187.35" y="576.93" width="45.30" height="45.30" fill="#FFFFFF"/><rect x="187.35" y="619.21" width="45.30" height="45.30" fill="#FFFFFF"/><rect x="187.35" y="661.49" width="45.30" height="45.30" fill="#FFFFFF"/><rect x="187.35" y="703.77" width="45.30" height="45.30" fill="#FFFFFF"/><rect x="187.35" y="746.05" width="45.30" height="45.30" fill="#FFFFFF"/><rect x="187.35" y="232.65" width="45.30" height="45.30" fill="#FFFFFF"/><rect x="187.35" y="274.93" width="45.30" height="45.30" fill="#FFFFFF"/><rect x="187.35" y="317.21" width="45.30" height="45.30" fill="#FFFFFF"/><rect x="187.35" y="359.49" width="45.30" height="45.30" fill="#FFFFFF"/><rect x="187.35" y="401.77" width="45.30" height="45.30" fill="#FFFFFF"/><rect x="187.35" y="444.05" width="45.30" height="45.30" fill="#FFFFFF"/><rect x="232.65" y="489.35" width="45.30" height="45.30" fill="#FFFFFF"/><rect x="274.93" y="489.35" width="45.30" height="45.30" fill="#FFFFFF"/><rect x="317.21" y="489.35" width="45.30" height="45.30" fill="#FFFFFF"/><rect x="359.49" y="489.35" width="45.30" height="45.30" fill="#FFFFFF"/><rect x="401.77" y="489.35" width="45.30" height="45.30" fill="#FFFFFF"/><rect x="444.05" y="489.35" width="45.30" height="45.30" fill="#FFFFFF"/><rect x="534.65" y="489.35" width="45.30" height="45.30" fill="#FFFFFF"/><rect x="576.93" y="489.35" width="45.30" height="45.30" fill="#FFFFFF"/><rect x="619.21" y="489.35" width="45.30" height="45.30" fill="#FFFFFF"/><rect x="661.49" y="489.35" width="45.30" height="45.30" fill="#FFFFFF"/><rect x="703.77" y="489.35" width="45.30" height="45.30" fill="#FFFFFF"/><rect x="746.05" y="489.35" width="45.30" height="45.30" fill="#FFFFFF"/><rect x="489.35" y="232.65" width="45.30" height="45.30" fill="#FFFFFF"/><rect x="489.35" y="274.93" width="45.30" height="45.30" fill="#FFFFFF"/><rect x="489.35" y="317.21" width="45.30" height="45.30" fill="#FFFFFF"/><rect x="489.35" y="359.49" width="45.30" height="45.30" fill="#FFFFFF"/><rect x="489.35" y="401.77" width="45.30" height="45.30" fill="#FFFFFF"/><rect x="489.35" y="444.05" width="45.30" height="45.30" fill="#FFFFFF"/><rect x="489.35" y="534.65" width="45.30" height="45.30" fill="#FFFFFF"/><rect x="489.35" y="576.93" width="45.30" height="45.30" fill="#FFFFFF"/><rect x="489.35" y="619.21" width="45.30" height="45.30" fill="#FFFFFF"/><rect x="489.35" y="661.49" width="45.30" height="45.30" fill="#FFFFFF"/><rect x="489.35" y="703.77" width="45.30" height="45.30" fill="#FFFFFF"/><rect x="489.35" y="746.05" width="45.30" height="45.30" fill="#FFFFFF"/><rect x="232.65" y="232.65" width="45.30" height="45.30" fill="#FFFFFF"/><rect x="274.93" y="274.93" width="45.30" height="45.30" fill="#FFFFFF"/><rect x="317.21" y="317.21" width="45.30" height="45.30" fill="#FFFFFF"/><rect x="359.49" y="359.49" width="45.30" height="45.30" fill="#FFFFFF"/><rect x="401.77" y="401.77" width="45.30" height="45.30" fill="#FFFFFF"/><rect x="444.05" y="444.05" width="45.30" height="45.30" fill="#FFFFFF"/><rect x="534.65" y="534.65" width="45.30" height="45.30" fill="#FFFFFF"/><rect x="576.93" y="576.93" width="45.30" height="45.30" fill="#FFFFFF"/><rect x="619.21" y="619.21" width="45.30" height="45.30" fill="#FFFFFF"/><rect x="661.49" y="661.49" width="45.30" height="45.30" fill="#FFFFFF"/><rect x="703.77" y="703.77" width="45.30" height="45.30" fill="#FFFFFF"/><rect x="746.05" y="746.05" width="45.30" height="45.30" fill="#FFFFFF"/><rect x="746.05" y="232.65" width="45.30" height="45.30" fill="#FFFFFF"/><rect x="703.77" y="274.93" width="45.30" height="45.30" fill="#FFFFFF"/><rect x="661.49" y="317.21" width="45.30" height="45.30" fill="#FFFFFF"/><rect x="619.21" y="359.49" width="45.30" height="45.30" fill="#FFFFFF"/><rect x="576.93" y="401.77" width="45.30" height="45.30" fill="#FFFFFF"/><rect x="534.65" y="444.05" width="45.30" height="45.30" fill="#FFFFFF"/><rect x="444.05" y="534.65" width="45.30" height="45.30" fill="#FFFFFF"/><rect x="401.77" y="576.93" width="45.30" height="45.30" fill="#FFFFFF"/><rect x="359.49" y="619.21" width="45.30" height="45.30" fill="#FFFFFF"/><rect x="317.21" y="661.49" width="45.30" height="45.30" fill="#FFFFFF"/><rect x="274.93" y="703.77" width="45.30" height="45.30" fill="#FFFFFF"/><rect x="232.65" y="746.05" width="45.30" height="45.30" fill="#FFFFFF"/></svg>
